<?xml version="1.0" encoding="UTF-8" standalone="no"?>
<!-- Created with Inkscape (http://www.inkscape.org/) -->

<svg
   version="1.1"
   id="svg1"
   width="889.24921"
   height="250.37445"
   viewBox="0 0 889.2492 250.37445"
   sodipodi:docname="iporch_horizontal.svg"
   inkscape:version="1.4.2 (ebf0e94, 2025-05-08)"
   xmlns:inkscape="http://www.inkscape.org/namespaces/inkscape"
   xmlns:sodipodi="http://sodipodi.sourceforge.net/DTD/sodipodi-0.dtd"
   xmlns:xlink="http://www.w3.org/1999/xlink"
   xmlns="http://www.w3.org/2000/svg"
   xmlns:svg="http://www.w3.org/2000/svg">
  <defs
     id="defs1">
    <linearGradient
       id="linearGradient11"
       inkscape:collect="always">
      <stop
         style="stop-color:#b60076;stop-opacity:1;"
         offset="0"
         id="stop11" />
      <stop
         style="stop-color:#0058b6;stop-opacity:1;"
         offset="1"
         id="stop12" />
    </linearGradient>
    <linearGradient
       id="linearGradient7"
       inkscape:collect="always">
      <stop
         style="stop-color:#b60076;stop-opacity:1;"
         offset="0"
         id="stop8" />
      <stop
         style="stop-color:#0058b6;stop-opacity:1;"
         offset="1"
         id="stop7" />
    </linearGradient>
    <clipPath
       clipPathUnits="userSpaceOnUse"
       id="clipPath1">
      <rect
         style="fill:#000000;fill-rule:evenodd;stroke:#000000;stroke-width:0.377953;stroke-dasharray:2.26773, 0.377953"
         id="rect2"
         width="342.74484"
         height="319.37585"
         x="38.08276"
         y="35.486206" />
    </clipPath>
    <clipPath
       clipPathUnits="userSpaceOnUse"
       id="clipPath3">
      <rect
         style="fill:#000000;fill-rule:evenodd;stroke:#000000;stroke-width:0.377953;stroke-dasharray:2.26773, 0.377953"
         id="rect4"
         width="363.51724"
         height="326.29999"
         x="32.024139"
         y="25.965517" />
    </clipPath>
    <clipPath
       clipPathUnits="userSpaceOnUse"
       id="clipPath8">
      <path
         style="fill:url(#radialGradient9);fill-opacity:1"
         d="m 120.38875,674.57096 c -26.037395,-5.91684 -36.873702,-30.14237 -28.564833,-63.85922 2.342077,-9.50399 2.001637,-9.16547 7.146894,-7.10674 3.751549,1.50107 4.158359,1.97791 3.661549,4.29184 -0.3074,1.43174 -1.28974,5.97816 -2.18297,10.10316 -6.311179,29.14519 5.6921,47.48598 31.05061,47.44476 52.33876,-0.0851 132.35048,-67.2462 171.54765,-143.99553 l 6.66525,-13.05078 4.1449,1.76034 c 4.96691,2.10945 4.31761,4.61338 -6.05267,23.34121 -46.32857,83.66537 -137.62529,152.38569 -187.41638,141.07096 z m 154.20833,-0.11579 c -15.98561,-3.01178 -31.00575,-9.09377 -49.78986,-20.16101 -11.96177,-7.04765 -12.78852,-7.8457 -10.15736,-9.8048 5.2766,-3.92882 5.41816,-3.91137 15.20954,1.87453 76.3808,45.13476 112.9108,9.90453 72.90861,-70.31447 -7.73199,-15.50546 -7.73199,-15.50546 -5.23581,-19.27744 3.7117,-5.60876 3.11915,-6.21787 13.35458,13.72802 34.33763,66.91408 17.8464,114.15473 -36.2897,103.95517 z m 185.43755,-25.77045 c -8.34363,-2.85247 -11.53488,-16.96816 -5.93751,-26.26301 3.90893,-6.49105 13.03625,-7.48834 18.50288,-2.02171 4.14646,4.14646 4.55543,7.6 0.9,7.6 -1.49906,0 -2.5,-0.57151 -2.5,-1.42742 C 471,624.69109 466.24401,621 463.81969,621 c -6.39917,0 -9.73684,15.02172 -4.74711,21.36514 C 462.46651,646.67982 471,645.1102 471,640.17126 471,639.52707 472.17378,639 473.60841,639 c 4.87651,0 1.05715,8.15023 -4.43201,9.45755 -1.47202,0.35058 -3.3514,0.81168 -4.1764,1.02466 -0.825,0.21298 -3.05942,-0.14589 -4.96537,-0.79749 z M 522.5,648.9882 C 506.74473,645.62235 508.5863,617 524.55813,617 c 5.95829,0 9.86268,3.41718 11.44615,10.01785 1.85116,7.7165 1.5359,7.98215 -9.4729,7.98215 -10.85503,0 -11.89521,1.0373 -6.94249,6.92327 3.10694,3.69239 7.80061,4.13139 11.66572,1.09109 2.25327,-1.77242 2.66159,-1.82026 3.80256,-0.44547 2.80889,3.3845 -5.90684,7.84004 -12.55717,6.41931 z m 8.5,-21.44924 c 0,-6.04243 -6.52153,-8.17127 -11.07692,-3.61588 C 515.0693,628.77685 515.88989,630 524,630 c 6.77045,0 7,-0.0807 7,-2.46104 z m 81.9478,21.067 C 601.05352,644.73202 607.15143,630 620.64922,630 624.76408,630 625,629.84573 625,627.15499 c 0,-5.88806 -6.21352,-8.03238 -10.59091,-3.65499 -2.5275,2.5275 -6.40909,3.39615 -6.40909,1.43426 0,-7.07451 13.05496,-10.65244 18.91604,-5.18426 4.19485,3.91364 5.3822,29.25 1.37076,29.25 -1.25774,0 -2.2868,-0.49814 -2.2868,-1.10699 0,-0.66275 -0.70229,-0.81715 -1.75,-0.38475 -4.24821,1.75328 -8.13139,2.13042 -11.3022,1.0977 z m 9.82969,-5.16266 c 4.49907,-3.15127 3.12984,-9.4433 -2.05498,-9.4433 -7.43262,0 -11.08186,4.73547 -7.06752,9.17126 2.02607,2.23878 6.13946,2.36144 9.1225,0.27204 z m 41.86506,5.48869 c -11.22543,-3.20759 -13.594,-23.72339 -3.45273,-29.90636 12.89124,-7.85957 25.91054,7.80698 18.76107,22.57581 -3.08579,6.37439 -8.90406,9.16053 -15.30834,7.33055 z m 8.29687,-5.68199 c 8.15666,-6.60541 1.99798,-24.83809 -7.20765,-21.33812 -5.21471,1.98263 -7.58579,12.60217 -4.25281,19.04743 2.26634,4.38263 7.56855,5.44242 11.46046,2.29069 z m -271.94726,1.97745 C 388.66759,632.90288 395.52762,606.04392 411,606.04392 c 12.87628,0 20.83626,20.70537 13.58004,35.32414 -4.31369,8.69057 -16.72585,10.72142 -23.58788,3.85939 z M 417.01347,642.25 c 6.22017,-5.61753 6.36424,-23.21514 0.23654,-28.8941 -6.11057,-5.66309 -14.64802,-1.09556 -16.15719,8.6441 -2.64309,17.05753 6.53264,28.72844 15.92065,20.25 z M 434,633 c 0,-16 0,-16 2.5,-16 1.59603,0 2.5,0.56289 2.5,1.5567 0,1.40894 0.21096,1.40894 2.22251,0 C 444.77479,616.06859 448,616.51748 448,619.5 c 0,2 -0.5,2.5 -2.5,2.5 -5.31078,0 -6.5,2.83584 -6.5,15.5 0,11.5 0,11.5 -2.5,11.5 -2.5,0 -2.5,0 -2.5,-16 z m 48,-6.5 c 0,-22.5 0,-22.5 2.5,-22.5 2.45833,0 2.5,0.13333 2.5,8 0,8.36367 0.26831,8.868 3.44113,6.4682 3.1298,-2.36726 9.24938,-1.8686 12.10432,0.98635 3.84812,3.84811 3.83457,29.54545 -0.0156,29.54545 -2.47013,0 -2.47013,0 -2.75,-12.72219 -0.31633,-14.3792 -1.42264,-16.34411 -7.92584,-14.07708 C 487.61738,623.67764 487,625.67875 487,637.93426 487,649 487,649 484.5,649 482,649 482,649 482,626.5 Z m 63.85606,20.9836 C 543.78356,646.3577 541,641.69587 541,639.35078 c 0,-1.69859 5.20699,0.0634 5.94815,2.01284 2.19369,5.76984 13.05185,4.53354 13.05185,-1.48608 0,-1.99745 -0.87676,-2.48974 -11.14658,-6.2587 -10.77912,-3.95587 -7.4683,-16.60317 4.34953,-16.6151 6.25576,-0.006 13.36222,5.65474 11.29578,8.99831 -1.04783,1.69543 -4.37264,1.10207 -5.48646,-0.97913 -2.41131,-4.50556 -8.85899,-5.04637 -11.06311,-0.92793 -1.57453,2.94204 0.99785,5.45292 7.0817,6.91241 9.70991,2.32937 12.92024,9.19535 7.04606,15.06952 -3.36103,3.36104 -11.34832,4.0537 -16.22086,1.40668 z m 29.01638,-0.13376 c -0.94444,-1.13556 -1.47652,-5.34555 -1.70619,-13.5 C 572.83471,622.07829 572.81654,622 570.41625,622 568.50558,622 568,621.47689 568,619.5 c 0,-1.9835 0.50402,-2.5 2.43963,-2.5 2.0973,0 2.48319,-0.52622 2.75,-3.75 C 573.67511,607.38425 578,607.09695 578,612.93045 578,616.806 578.14633,617 581.06955,617 c 4.22685,0 3.93981,4.32633 -0.31955,4.81642 -5.02966,0.57873 -3.77656,23.18358 1.28518,23.18358 1.29815,0 1.96482,0.6786 1.96482,2 0,2.61641 -7.01871,2.88542 -9.12756,0.34984 z M 590,633 c 0,-15.41573 0.0742,-16 2.03138,-16 1.11727,0 2.28793,0.66853 2.60148,1.48563 0.50429,1.31417 0.81488,1.31417 2.69112,0 C 600.78503,616.06142 604,616.54991 604,619.5 c 0,2 -0.5,2.5 -2.5,2.5 -5.31078,0 -6.5,2.83584 -6.5,15.5 0,11.5 0,11.5 -2.5,11.5 -2.5,0 -2.5,0 -2.5,-16 z m 51.87244,14.35179 c -0.92438,-1.11011 -1.53568,-5.59908 -1.87244,-13.75 -0.47985,-11.61398 -0.5907,-12.11467 -2.75,-12.42134 C 633.95485,620.71246 634.17686,617 637.5,617 c 2.25,0 2.5,-0.4 2.5,-4 0,-3.6 0.25,-4 2.5,-4 2.25,0 2.5,0.4 2.5,4 0,3.79792 0.15507,4 3.06955,4 3.14995,0 4.252,4.31784 1.18045,4.625 -0.6875,0.0688 -1.925,0.18125 -2.75,0.25 -1.22894,0.10241 -1.5,2.00028 -1.5,10.50256 0,10.79269 1.02494,13.59432 4.48727,12.2657 1.09855,-0.42155 1.51273,0.0954 1.51273,1.88812 0,3.05507 -6.76078,3.66274 -9.12756,0.82041 z M 688,633 c 0,-16 0,-16 2.5,-16 1.59603,0 2.5,0.56289 2.5,1.5567 0,1.40894 0.21096,1.40894 2.22251,0 C 698.77479,616.06859 702,616.51748 702,619.5 c 0,2 -0.5,2.5 -2.5,2.5 -5.31078,0 -6.5,2.83584 -6.5,15.5 0,11.5 0,11.5 -2.5,11.5 -2.5,0 -2.5,0 -2.5,-16 z m -496.61564,-2.29412 c -22.50013,-19.15304 -46.14047,-44.71798 -60.53994,-65.46863 -2.95805,-4.26276 -2.95805,-4.26276 -0.7171,-8.25 2.90956,-5.17687 2.82878,-5.20626 8.96638,3.26275 15.61594,21.54777 36.77303,44.56422 55.80425,60.70852 12.68637,10.76191 12.14444,9.85024 7.6037,12.79148 -4.46737,2.89371 -3.98741,3.02513 -11.11729,-3.04412 z m 3.95544,-13.53976 c -8.85765,-7.01664 -9.58023,-6.66612 13.74198,-6.66612 11.50274,0 20.80251,0.28237 20.66615,0.62748 -0.13636,0.34512 -2.69603,2.70762 -5.68816,5.25 -7.81508,6.64041 -20.87995,6.99917 -28.71997,0.78864 z M 156.5,616.90593 C 58.912325,599.76107 21.949457,547.7767 80.088699,509.44151 c 12.791195,-8.43411 12.219245,-8.30262 14.463813,-3.32506 1.843371,4.08787 1.844333,4.22853 0.03622,5.29152 -15.061801,8.8549 -24.322969,17.0716 -29.2161,25.92113 -14.503915,26.23125 21.687636,55.86123 83.397328,68.2773 14.26996,2.87114 14.26996,2.87114 19.46584,8.13237 6.20937,6.28746 6.13658,6.30711 -11.7358,3.16716 z m 89.5,1.66499 c 0,-3.09251 11.07308,-10.44142 17.43202,-11.56916 9.24645,-1.63983 30.24343,-6.75985 32.38808,-7.89769 7.42079,-3.9371 12.28506,-4.09664 13.80752,-0.45287 0.82322,1.97025 1.28338,4.13834 1.02258,4.81799 C 309.20752,607.22873 246,621.99347 246,618.57092 Z M 325.10878,594.75 c -2.43624,-6.51231 -2.5648,-6.22319 4.6049,-10.35559 38.94187,-22.44493 33.90673,-54.17401 -12.05182,-75.94478 C 302.8541,501.43513 270.66548,492 261.54276,492 c -2.5561,0 -14.50825,-10.36785 -13.32092,-11.55518 0.86052,-0.86051 30.54261,4.56371 40.77816,7.45197 78.71834,22.21264 100.71636,67.76282 49.32236,102.12929 -11.60396,7.75941 -12.02209,7.90889 -13.21358,4.72392 z m -221.85326,-6.23855 c -2.82548,-1.22813 -3.12847,-1.70738 -2.34612,-3.71086 12.54323,-32.12149 46.48697,-78.35576 80.96613,-110.28277 17.26057,-15.98294 17.55444,-16.12014 22.59539,-10.54996 1.94765,2.15214 1.94697,2.15433 -1.51119,4.8306 -31.02428,24.00966 -69.03701,71.00827 -87.71621,108.45154 -6.67487,13.38007 -6.81375,13.51052 -11.988,11.26145 z m 74.07693,-6.36252 c -30.19014,-10.43295 -19.21827,-51.94092 17.38748,-65.77899 34.16462,-12.91525 78.62091,28.91901 59.55671,56.04406 -6.22168,8.85237 -17.96219,12.95934 -30.51907,10.67595 -12.20771,-2.21989 -16.94394,-2.35035 -24.96541,-0.68764 -9.83007,2.03759 -15.00716,1.97646 -21.45971,-0.25338 z m 19.35794,-18.50401 c 8.64296,-7.92068 4.32425,-22.09994 -7.12422,-23.39035 -6.53061,-0.7361 -10.83598,1.60562 -13.65374,7.42633 -6.41327,13.24805 9.98972,25.85071 20.77796,15.96402 z m -14.37657,-0.59515 C 178.29692,560.60049 177,558.18246 177,553.14247 c 0,-10.94214 14.42843,-15.04672 20.11453,-5.72216 6.23182,10.21947 -4.71494,21.77919 -14.80071,15.62946 z m 9.85744,-4.70476 c 2.27863,-2.06213 2.37042,-7.08898 0.17375,-9.51627 C 188.73473,544.83942 181,548.02417 181,553.5 c 0,5.38731 7.14695,8.48697 11.17126,4.84501 z m 44.92262,7.10644 c 4.01883,-2.07821 6.89864,-7.06731 6.89864,-11.95145 0,-13.56408 -17.77751,-18.67413 -24.89598,-7.15621 -7.29238,11.79933 5.61994,25.50826 17.99734,19.10766 z M 226.5,564.04597 c -7.27511,-3.00918 -9.40564,-12.4037 -4.07484,-17.96785 9.09916,-9.49748 23.68827,0.45122 18.05868,12.31469 -2.54991,5.37354 -8.67421,7.84937 -13.98384,5.65316 z m 8.67126,-5.70096 c 2.27863,-2.06213 2.37042,-7.08898 0.17375,-9.51627 C 231.58526,544.67426 224,547.68129 224,553.32625 c 0,5.88629 6.82471,8.95234 11.17126,5.01876 z M 397,557.25 C 397,536 397,536 399.5,536 c 2.5,0 2.5,0 2.5,21.25 0,21.25 0,21.25 -2.5,21.25 -2.5,0 -2.5,0 -2.5,-21.25 z m 14.66667,21.08333 C 411.3,577.96667 411,570.76667 411,562.33333 411,547 411,547 413.5,547 c 1.45414,0 2.5,0.57503 2.5,1.37454 0,1.06733 0.88617,0.9361 3.96494,-0.58716 4.86089,-2.40497 9.15856,-1.71713 12.02287,1.92426 3.45498,4.39228 3.03075,29.20573 -0.48781,28.53311 -2.4974,-0.47741 -2.5,-0.49012 -2.5,-12.20634 0,-14.87709 -3.06353,-18.70928 -10.36514,-12.96583 C 416.0656,555.09356 416,555.42702 416,566.46559 c 0,9.40026 -0.2683,11.42339 -1.58179,11.92742 -1.95858,0.75158 -1.93988,0.75199 -2.75154,-0.0597 z M 446.25,577.47775 C 444.12246,575.9732 444,575.20933 444,563.4433 444,551 444,551 441,551 c -2.33333,0 -3,-0.44444 -3,-2 0,-1.55556 0.66667,-2 3,-2 2.83333,0 3,-0.22222 3,-4 0,-3.6 0.25,-4 2.5,-4 2.25,0 2.5,0.4 2.5,4 0,3.75897 0.17702,4 2.93785,4 2.3214,0 2.90624,0.41966 2.7872,2 -0.11236,1.49156 -0.86754,2 -2.97061,2 -4.44593,0 -3.90274,22.311 0.55565,22.82222 2.24076,0.25694 2.74726,0.76344 2.5,2.5 -0.39484,2.77299 -5.33072,3.43929 -8.56009,1.15553 z m 19.86617,-0.19024 c -8.62549,-4.2491 -9.64701,-21.79179 -1.6359,-28.09333 8.36626,-6.5809 18.19575,-1.62129 19.28659,9.73133 L 484.25446,564 H 474.12723 C 468.55725,564 464,564.38285 464,564.85078 c 0,7.25282 6.78047,11.45636 13.28695,8.23721 7.18845,-3.55656 8.72589,0.78553 1.58554,4.47795 -3.65315,1.88912 -8.57434,1.7817 -12.75632,-0.27843 z M 479,558.43426 c 0,-8.84031 -11.27303,-9.85223 -14.28209,-1.28203 -0.87845,2.50195 0.0261,2.84777 7.44876,2.84777 5.53492,0 6.83333,-0.29751 6.83333,-1.56574 z m 11.66667,19.89907 C 490.3,577.96667 490,570.76667 490,562.33333 490,547 490,547 492.5,547 c 1.60684,0 2.5,0.56183 2.5,1.57258 0,1.3036 0.45068,1.21808 2.63486,-0.5 4.34455,-3.41742 7.40743,-2.74464 6.6054,1.45092 C 503.86948,551.46311 503.15403,552 500.94013,552 496.09978,552 495,554.91093 495,567.72251 c 0,11.27174 -1.06488,13.87927 -4.33333,10.61082 z m 21.37076,-0.60895 c -9.88475,-5.00196 -4.45029,-17.10872 8.14019,-18.13452 5.16243,-0.4206 5.31261,-0.51826 4.9972,-3.24987 -0.6827,-5.91262 -7.24588,-7.6077 -10.99616,-2.83999 -2.0945,2.66272 -6.17866,3.41287 -6.17866,1.13486 0,-7.48454 14.39677,-11.09681 20.09007,-5.04076 4.00009,4.25496 4.6321,28.41055 0.74326,28.40779 -1.46666,-10e-4 -2.84485,-0.53646 -3.06264,-1.18982 -0.28083,-0.84249 -1.09676,-0.69709 -2.80584,0.5 -2.83619,1.98654 -7.47089,2.16142 -10.92742,0.41231 z M 524,572 c 4.52112,-4.52112 2.70609,-9.36094 -3.25,-8.66621 -5.22765,0.60976 -8.75,3.10783 -8.75,6.20557 0,4.34275 8.39621,6.06443 12,2.46064 z m 18.40499,4.89815 c -1.60105,-1.76649 -1.95824,-4.00017 -2.23874,-14 C 539.83462,551.07551 539.81717,551 537.41625,551 535.66667,551 535,550.44818 535,549 c 0,-1.46667 0.66667,-2 2.5,-2 2.25,0 2.5,-0.4 2.5,-4 0,-3.78759 0.16109,-4 3.03349,-4 2.8891,0 3.01999,0.1785 2.75,3.75 -0.25929,3.42992 -0.0488,3.77701 2.46651,4.06642 3.72275,0.42835 3.94715,4.18358 0.25,4.18358 -2.5,0 -2.5,0 -2.5,11.5 0,11.44993 0.0104,11.5 2.38337,11.5 2.25254,0 4.21503,3.06826 2.8412,4.4421 -1.40319,1.40319 -7.04336,0.41583 -8.81958,-1.54395 z m 21.01345,1.133 c -5.83614,-2.36097 -9.20026,-10.25293 -8.03821,-18.85702 1.94804,-14.42384 19.77153,-17.62852 25.24095,-4.53835 5.78034,13.83431 -4.90737,28.36937 -17.20274,23.39537 z m 11.73355,-7.41624 c 2.78116,-4.42378 2.17144,-13.57728 -1.13912,-17.10121 -7.45956,-7.94033 -17.08536,3.76692 -12.50644,15.21077 2.70753,6.76678 9.94917,7.77003 13.64556,1.89044 z m 13.34759,7.55134 C 588.22481,577.89148 588,570.76667 588,562.33333 588,547 588,547 590.5,547 c 1.46952,0 2.5,0.57385 2.5,1.3922 0,1.09183 0.80908,0.97317 3.75,-0.54997 4.35409,-2.25505 8.56994,-1.82974 11.78289,1.18867 2.12754,1.99872 2.13033,1.99872 3.93537,0.004 3.83057,-4.23274 12.80658,-3.12709 15.5021,1.90953 2.32923,4.35222 1.28386,28.08146 -1.22036,27.70107 -2.16869,-0.32942 -2.26025,-0.77036 -2.53354,-12.20205 C 623.91078,553.65723 622.91961,551 618.4558,551 c -5.61661,0 -6.92288,2.8141 -7.30437,15.73585 -0.33875,11.47386 -0.4314,11.90939 -2.50161,11.75959 -2.05028,-0.14837 -2.17297,-0.74402 -2.64982,-12.86488 -0.52821,-13.42636 -0.97405,-14.58185 -5.63922,-14.61525 -5.55658,-0.0398 -6.84982,2.83971 -6.99407,15.57267 -0.13185,11.63866 -1.51542,14.92998 -4.86713,11.57827 z m 67.26299,-0.73164 c -7.83,-4.24851 -8.85946,-21.80952 -1.63489,-27.8886 7.49553,-6.30707 19.87232,-2.00694 19.87232,6.90433 0,2.72487 -4.68892,1.92524 -5.4034,-0.92148 -2.10562,-8.38946 -13.01279,-4.51762 -14.24783,5.05772 -1.50966,11.70442 9.83285,19.45335 14.13836,9.65899 1.05477,-2.39945 5.51574,-3.2056 5.50913,-0.99557 -0.0216,7.23689 -10.94432,12.13978 -18.23369,8.18461 z M 696.25,578.26936 C 695.30374,577.93928 695,572.75079 695,556.91667 V 536 l 7.75,0.006 C 717.44724,536.0166 723,539.67691 723,549.35464 723,558.45981 718.5347,562 707.04966,562 H 700 v 7.89301 c 0,7.86499 -0.70452,9.43867 -3.75,8.37635 z m 19.71104,-23.45792 C 721.83197,548.50974 716.71239,541 706.54545,541 H 700 v 8 8 h 6.96104 c 5.8732,0 7.27969,-0.34202 9,-2.18856 z m 18.33751,22.22904 c -14.35856,-8.75492 -4.20097,-35.47587 11.2435,-29.57757 14.36256,5.48511 10.61067,31.52961 -4.54205,31.52961 -1.925,0 -4.94065,-0.87841 -6.70145,-1.95204 z M 746.75,571.36342 c 4.49468,-4.94404 2.26348,-18.56898 -3.26819,-19.95734 -6.45478,-1.62005 -10.50936,2.76361 -10.44637,11.29426 0.0781,10.58065 7.6329,15.35278 13.71456,8.66308 z m 17.65499,5.53473 c -1.60105,-1.76649 -1.95824,-4.00017 -2.23874,-14 C 761.83462,551.07551 761.81717,551 759.41625,551 757.66667,551 757,550.44818 757,549 c 0,-1.46667 0.66667,-2 2.5,-2 2.25,0 2.5,-0.4 2.5,-4 0,-3.6 0.25,-4 2.5,-4 2.50052,0 2.68883,0.32562 2.89157,5 0.0846,1.95071 0.71265,2.56952 2.85843,2.81642 3.61448,0.41589 3.97025,4.18358 0.39504,4.18358 -2.19864,0 -2.39491,0.47641 -2.95664,7.17678 C 766.79831,568.7937 767.7133,574 770.46926,574 c 2.82538,0 3.43207,0.66131 2.80535,3.0579 -0.71582,2.73728 -6.33567,2.63606 -8.86962,-0.15975 z m 20.67982,0.3503 C 780.34034,574.81946 778,569.919 778,562.41348 c 0,-19.39493 22.01907,-22.14511 24.63269,-3.07663 L 803.27185,564 h -10.13593 c -11.1363,0 -11.58099,0.30486 -8.6663,5.94124 2.48738,4.81007 8.53568,5.89483 12.74313,2.28548 1.99608,-1.71233 4.78725,-0.97968 4.78725,1.25659 0,4.50962 -10.7759,6.90822 -16.91519,3.76514 z M 797.15705,557 c -0.96983,-7.06988 -9.375,-8.34679 -12.69404,-1.92848 -2.44017,4.71877 -2.04681,5.03976 5.78699,4.72229 7.09407,-0.28749 7.24262,-0.34758 6.90705,-2.79381 z m 46.54184,20.21977 c -1.25182,-1.38324 -1.70118,-3.69863 -1.70758,-8.79851 C 841.97498,555.4183 841.0542,551 838.36071,551 836.66667,551 836,550.4352 836,549 c 0,-1.45347 0.66667,-2 2.43963,-2 2.0973,0 2.48319,-0.52622 2.75,-3.75 0.49566,-5.98881 5.81037,-6.27824 5.81037,-0.31642 0,3.67085 0.24319,4.06642 2.5,4.06642 1.83333,0 2.5,0.53333 2.5,2 0,1.47356 -0.66667,2 -2.53275,2 -4.21593,0 -3.39102,22.33674 0.84284,22.82222 2.24076,0.25694 2.74726,0.76344 2.5,2.5 -0.42778,3.00436 -6.64986,3.6173 -9.1112,0.89755 z m 15.0938,1.08742 c -0.35616,-0.72592 -0.31083,-23.50874 0.0578,-29.05719 0.11294,-1.6999 0.76692,-2.25 2.67488,-2.25 3.68482,0 3.50678,31.28166 -0.18103,31.80719 -1.1856,0.16895 -2.33386,-0.0561 -2.55167,-0.5 z m 17.56431,-0.29877 c -5.85056,-2.36099 -7.14367,-10.3756 -2.43392,-15.08534 2.8314,-2.83141 5.74252,-3.5504 12.82692,-3.168 1.91635,0.10344 2.25,-0.38319 2.25,-3.28163 0,-5.74394 -7.1245,-7.60019 -11.41242,-2.97345 -2.76553,2.98405 -5.58758,3.28148 -5.58758,0.58889 0,-5.15023 10.07723,-9.33694 16.25785,-6.75451 4.99794,2.08827 5.78279,4.17957 6.36281,16.95415 0.27997,6.16631 0.69073,11.77397 0.9128,12.46147 0.25986,0.80447 -0.62461,1.25 -2.48151,1.25 -1.58691,0 -3.06347,-0.53457 -3.28126,-1.18793 -0.28083,-0.84249 -1.09676,-0.69709 -2.80584,0.5 -2.5784,1.80598 -7.11949,2.10408 -10.60785,0.69635 z m 11.04325,-6.31776 c 4.25191,-4.25191 2.50177,-9.05244 -3.07126,-8.42427 -4.55388,0.51328 -8.32899,2.98546 -8.32899,5.45434 0,5.4715 7.05956,7.31062 11.40025,2.96993 z m 32.98269,5.78272 C 917.56911,576.03407 915,572.4448 915,569.95295 c 0,-1.83683 4.84924,-1.00331 5.46587,0.9395 0.95925,3.02233 5.7983,4.56936 9.19719,2.94031 5.75551,-2.75854 3.96107,-6.976 -3.9703,-9.33136 -8.84896,-2.62786 -12.19814,-8.47946 -8.15615,-14.25021 4.65609,-6.6475 20.46339,-3.26126 20.46339,4.38367 0,2.29885 -4.09271,1.517 -6.22077,-1.18839 -3.69847,-4.70185 -13.25125,-1.59832 -10.1684,3.30353 0.60533,0.9625 3.65351,2.65 6.77373,3.75 7.67143,2.70448 9.61544,4.58793 9.61544,9.3159 0,7.39379 -9.80267,11.65465 -17.61706,7.65748 z M 637,562.5 c 0,-15.5 0,-15.5 2.5,-15.5 2.5,0 2.5,0 2.5,15.5 0,15.5 0,15.5 -2.5,15.5 -2.5,0 -2.5,0 -2.5,-15.5 z m 172,0 c 0,-15.5 0,-15.5 2.5,-15.5 1.45414,0 2.5,0.57503 2.5,1.37454 0,1.06733 0.88617,0.9361 3.96494,-0.58716 4.86089,-2.40497 9.15856,-1.71713 12.02287,1.92426 C 833.42991,554.08756 833.01756,578 829.5,578 c -2.5,0 -2.5,0 -2.5,-11.27749 0,-15.2249 -3.12728,-19.34323 -10.36514,-13.64993 C 814.06301,555.0956 814,555.41843 814,566.57258 814,578 814,578 811.5,578 809,578 809,578 809,562.5 Z m 94,-6.5 c 0,-22 0,-22 2.5,-22 2.5,0 2.5,0 2.5,22 0,22 0,22 -2.5,22 -2.5,0 -2.5,0 -2.5,-22 z M 280.47581,539.23788 C 224.85572,462.63295 150.65094,413.88681 115.2384,430.69116 c -22.224551,10.54624 -21.456646,49.83648 1.83819,94.05195 6.79004,12.88803 6.63592,12.18494 3.67341,16.75854 -3.00429,4.63809 -2.59324,4.95132 -9.51652,-7.25165 C 63.498451,450.11232 97.54866,392.55042 173.5,428.98841 c 34.43363,16.51969 76.90055,54.02698 108.14118,95.51159 10.15643,13.48679 9.74238,12.38909 6.51307,17.267 l -2.78631,4.20876 z m 357.67739,1.51532 c -1.57127,-1.57127 -1.44778,-3.26383 0.3468,-4.7532 1.71491,-1.42324 4.5,0.17804 4.5,2.58726 0,2.0281 -3.4451,3.56764 -4.8468,2.16594 z m 220.77723,-0.33702 c -1.65611,-1.9955 -0.0648,-4.91618 2.67856,-4.91618 3.47188,0 2.74498,6.39974 -0.73655,6.48469 -0.34515,0.008 -1.21906,-0.69741 -1.94201,-1.56851 z M 110.12007,502.15013 c -2.64122,-5.16759 -2.29123,-7.05132 1.61573,-8.69623 10.10802,-4.25568 57.30223,-14.7492 58.94513,-13.10631 C 171.50745,481.17412 158.93111,492 157.14441,492 c -3.44424,0 -27.207,5.66822 -36.91267,8.80492 -8.3852,2.70995 -9.34863,2.83812 -10.11167,1.34521 z m 208.81026,-7.1257 c -3.56967,-1.88718 -3.56967,-1.88718 -1.68041,-10.70581 12.5221,-58.45022 -26.88416,-74.25149 -87.77845,-35.19774 l -9.4553,6.06403 -4.0707,-2.99363 -4.07071,-2.99362 10.73719,-7.17982 c 43.2892,-28.9469 82.76418,-31.98987 99.12873,-7.64146 8.05198,11.98036 9.62556,36.76933 3.64202,57.37362 -1.7173,5.91351 -1.58625,5.847 -6.45237,3.27443 z m -131.93072,-7.19688 c 2.1e-4,-0.36985 2.35516,-2.73235 5.23321,-5.25 8.08919,-7.07623 26.07515,-7.01694 34.33393,0.11318 2.98829,2.57989 5.43302,4.94239 5.43274,5.25 -2.9e-4,0.3076 -10.12546,0.55927 -22.5004,0.55927 -12.37493,0 -22.4997,-0.3026 -22.49948,-0.67245 z m 345.62789,-5.29572 c -14.32921,-5.10776 -21.7587,-25.80919 -16.16643,-45.04592 5.66193,-19.47636 31.27865,-25.88853 45.23771,-11.32354 11.91744,12.43476 10.55843,42.53944 -2.36535,52.39688 -7.01432,5.35008 -18.1814,7.01122 -26.70593,3.97258 z m 18.54097,-13.39435 c 5.38933,-6.03171 6.61462,-24.07274 2.22006,-32.688 -5.05422,-9.90848 -18.66726,-9.20664 -23.00971,1.1863 -1.66057,3.97431 -1.87569,21.92264 -0.31221,26.04912 3.55552,9.38405 14.95682,12.33007 21.10186,5.45258 z M 620.5,482.10414 c -20.62458,-9.54887 -15.62706,-45.30999 6.55619,-46.91459 11.27872,-0.81582 17.38011,2.15869 21.06415,10.26908 C 651.28155,452.41803 650.925,453 643.5,453 c -5.75174,0 -6.5,-0.22188 -6.5,-1.92742 0,-4.21021 -6.86689,-7.28455 -11.1504,-4.99209 -6.01282,3.21796 -6.62528,22.82846 -0.81016,25.94062 4.80979,2.57412 10.5589,0.57406 12.27718,-4.27111 0.97255,-2.74239 12.68338,-2.57167 12.68338,0.1849 0,11.9024 -16.88214,20.01111 -29.5,14.16924 z M 398,451 v -32 h 7 7 v 32 32 h -7 -7 z m 26,0 v -32 l 16.25,0.01 c 24.96954,0.015 32.89286,5.20094 32.89286,21.52889 0,13.18583 -7.58981,19.23391 -25.36607,20.21344 L 438,461.29083 V 472.14541 483 h -7 -7 z m 29.23823,-2.04933 C 457.44699,447.78182 459.2,445.29156 459.2,440.48164 459.2,432.43944 455.90673,430 445.04966,430 H 438 v 10 10 l 5.75,-0.006 c 3.1625,-0.003 7.4322,-0.47275 9.48823,-1.04375 z M 578,459 v -24 h 6 c 5.73333,0 6,0.11111 6,2.5 0,2.68664 1.71517,3.40583 2.60324,1.09156 1.25042,-3.25855 13.04592,-4.95601 12.79676,-1.84156 -0.055,0.6875 -0.1675,3.48588 -0.25,6.21862 -0.12019,3.98102 -0.44964,4.85363 -1.65753,4.39012 -2.5538,-0.97999 -8.39519,0.62047 -10.49642,2.87588 C 591.18151,452.18229 591,453.76947 591,467.68856 V 483 h -6.5 -6.5 z m 79,-9.5 V 416 h 6.5 6.5 v 11.96986 11.96987 l 3.75,-2.55891 c 4.76953,-3.25461 15.61282,-3.17155 19.28296,0.14772 5.24879,4.747 5.96704,8.04891 5.96704,27.43162 V 483 h -6.43415 -6.43415 l -0.31585,-16.96691 c -0.36182,-19.43617 -0.76909,-20.48764 -7.93559,-20.48764 -7.20425,0 -7.88026,1.80711 -7.88026,21.06533 V 483 h -6.5 -6.5 z m -176,6 V 450 h 12.5 12.5 v 5.5 5.5 H 493.5 481 Z M 121.74592,326.91433 C 70.75495,314.89667 88.494424,228.18139 157.68106,151.25378 161.03566,147.52385 176,143.00121 176,145.71728 c 0,0.19567 -4.12233,4.95183 -9.16073,10.56924 -48.9133,54.53437 -75.040291,117.56424 -60.66435,146.34927 12.85582,25.74129 56.14875,18.08714 104.32508,-18.44458 9.90217,-7.50873 10.07338,-7.58958 17.5,-8.26419 9.30073,-0.84485 9.49749,-0.65654 4.06421,3.88955 -44.00308,36.81785 -83.10494,53.51146 -110.31829,47.09776 z M 269,326.49829 c -14.04569,-3.12613 -30.39404,-10.19964 -47.75,-20.6602 -9.42275,-5.67916 -9.43286,-5.6985 -4.81672,-9.2194 4.29876,-3.27883 2.99746,-3.53431 13.8254,2.71436 75.60537,43.63092 110.78857,4.30483 68.1689,-76.19594 -5.21766,-9.8552 -5.12521,-9.1258 -1.79469,-14.15855 3.46678,-5.23866 3.03805,-5.54307 9.56871,6.79396 37.62199,71.07148 20.02,123.46153 -37.2016,110.72577 z m 281.28428,-27.59163 c -11.17377,-7.15674 -11.10263,-32.16806 0.11095,-39.00594 11.47848,-6.99941 22.63526,1.70428 23.42758,18.27647 0.86523,18.09701 -11.14072,28.67019 -23.53853,20.72947 z m 14.62492,-5.31001 c 10.75214,-11.44513 0.68044,-36.33442 -11.96459,-29.56701 -7.45359,3.98904 -7.18754,28.26546 0.34325,31.3207 3.57574,1.45068 9.44273,0.56534 11.62134,-1.75369 z M 581,285 c 0,-16 0,-16 2.5,-16 1.59603,0 2.5,0.56289 2.5,1.5567 0,1.40894 0.21096,1.40894 2.22251,0 3.09107,-2.16507 6.43289,-1.98244 7.0521,0.3854 0.65211,2.49369 0.0276,3.0579 -3.38457,3.0579 C 587.10577,274 586,276.95168 586,289.72251 586,301 586,301 583.5,301 581,301 581,301 581,285 Z m 23.88148,14.49691 c -5.54215,-3.01183 -8.33129,-14.41211 -5.40235,-22.08144 4.54026,-11.8885 23.52087,-11.0534 23.52087,1.03487 0,2.54559 -3.93849,1.84165 -4.97688,-0.88954 -1.87014,-4.91883 -7.69541,-5.97942 -11.56857,-2.10625 -4.24788,4.24788 -3.20633,18.00238 1.55623,20.55122 3.05094,1.63281 7.91009,0.262 9.21379,-2.59929 C 618.49941,290.6085 623,289.98004 623,292.6 c 0,6.08677 -11.53179,10.47641 -18.11852,6.89691 z M 629,278.5 c 0,-22.5 0,-22.5 2.5,-22.5 2.45833,0 2.5,0.13333 2.5,8 0,8.36367 0.26831,8.868 3.44113,6.4682 3.1298,-2.36726 9.24938,-1.8686 12.10432,0.98635 3.68905,3.68904 3.87153,29.88579 0.20455,29.365 -2.17149,-0.3084 -2.25989,-0.73684 -2.53354,-12.27787 C 646.90842,275.54969 645.93772,273 641.29956,273 635.6712,273 634,276.76719 634,289.45455 634,301 634,301 631.5,301 629,301 629,301 629,278.5 Z m 37.03002,21.22069 C 653.74821,293.50602 657.85998,269 671.18452,269 c 7.72778,0 10.89531,3.27214 12.34239,12.75 L 684.1758,286 H 674.0879 C 664,286 664,286 664,288.57692 c 0,6.34513 7.78012,10.07415 13.60623,6.52147 3.39642,-2.07108 5.84047,-1.42604 4.80646,1.26854 -1.55518,4.05274 -11.12833,6.01249 -16.38267,3.35376 z m 12.32159,-18.4806 c 1.0766,-1.74197 -2.30833,-7.19112 -4.86573,-7.83299 -4.28746,-1.07608 -9.48588,3.11074 -9.48588,7.63995 0,1.12276 13.66344,1.30654 14.35161,0.19304 z m 15.90471,18.78553 c -2.03419,-0.86719 -6.24342,-6.43833 -6.25258,-8.27562 -0.009,-1.82617 4.88648,-0.56649 6.32383,1.62718 1.98913,3.0358 6.00308,4.05276 9.45883,2.39646 5.60823,-2.68795 3.34315,-7.12911 -4.72094,-9.25637 C 685.84739,283.03041 686.2024,269 699.50871,269 c 8.00386,0 16.75754,7.95175 9.729,8.83772 -1.47358,0.18575 -2.84506,-0.15978 -3.04775,-0.76785 -1.4388,-4.3164 -8.06425,-5.51513 -10.5857,-1.91526 -2.28799,3.26656 -0.41949,5.55253 6.08383,7.44309 9.80462,2.85028 13.1019,9.04721 7.98135,15.00021 -2.56998,2.98778 -10.98881,4.31382 -15.41312,2.42771 z m 28.18481,-0.44175 c -1.68634,-1.23026 -2.00676,-3.03504 -2.44113,-13.75 -0.48058,-11.85475 -0.5874,-12.34628 -2.75,-12.65342 C 713.95485,272.71246 714.17686,269 717.5,269 c 2.25,0 2.5,-0.4 2.5,-4 0,-3.6 0.25,-4 2.5,-4 2.25,0 2.5,0.4 2.5,4 0,3.77778 0.16667,4 3,4 4.11781,0 4.33969,3.71301 0.25,4.18358 -2.75,0.31642 -2.75,0.31642 -3.03759,10.80235 -0.29924,10.91085 0.70931,13.74881 4.38479,12.3384 0.98266,-0.37709 1.4028,0.24248 1.4028,2.06868 0,3.0512 -5.0464,3.75335 -8.55887,1.19086 z M 737,285.06955 C 737,269.80314 737.09747,269 738.95031,269 c 1.07267,0 2.34397,0.70343 2.82511,1.56319 0.79332,1.41758 0.99565,1.41758 2.17214,0 C 746.17216,267.88271 751,268.52401 751,271.5 c 0,2.08085 -0.477,2.5 -2.84501,2.5 -5.0714,0 -6.05426,2.32056 -6.37028,15.04038 -0.27387,11.02332 -0.37037,11.47179 -2.53471,11.77917 -2.25,0.31955 -2.25,0.31955 -2.25,-15.75 z m 21.5,14.72263 c -9.36673,-5.37181 -4.88842,-16.85429 6.86527,-17.6027 7.15711,-0.45573 9.18082,-3.50053 5.0633,-7.61805 C 767.63543,271.77829 760,273.21608 760,276.53518 760,277.43099 759.02887,278 757.5,278 c -3.39468,0 -3.22563,-2.42822 0.42308,-6.07692 4.66072,-4.66072 15.33085,-3.80438 17.90988,1.43738 2.36224,4.80111 2.00648,27.63954 -0.43055,27.63954 -1.20364,0 -2.45816,-0.70291 -2.78783,-1.56202 -0.54338,-1.41602 -0.80784,-1.41602 -2.8295,0 -2.5985,1.82006 -8.41098,2.0025 -11.28508,0.3542 z m 12.0105,-5.80378 c 3.57463,-3.94992 1.61403,-8.52865 -3.5105,-8.19835 -5.64584,0.36391 -8.54448,2.90445 -7.60133,6.66226 1.11628,4.44759 7.65849,5.35198 11.11183,1.53609 z m 18.93063,5.59547 c -1.68634,-1.23026 -2.00676,-3.03504 -2.44113,-13.75 -0.48058,-11.85475 -0.5874,-12.34628 -2.75,-12.65342 C 780.95485,272.71246 781.17686,269 784.5,269 c 2.25,0 2.5,-0.4 2.5,-4 0,-3.6 0.25,-4 2.5,-4 2.25,0 2.5,0.4 2.5,4 0,3.77778 0.16667,4 3,4 2.33333,0 3,0.44444 3,2 0,1.56036 -0.66667,2 -3.03275,2 -4.56973,0 -4.2935,22.28987 0.28275,22.81642 2.15997,0.24853 2.75,0.83857 2.75,2.75 0,2.87937 -5.16506,3.49337 -8.55887,1.01745 z m 19.58889,0.13682 c -6.3559,-3.21612 -9.16253,-14.68111 -5.6512,-23.08491 4.4494,-10.6489 18.8543,-10.49506 23.47701,0.25073 6.3078,14.66288 -5.0987,29.27417 -17.82581,22.83418 z m 9.28572,-3.88403 c 3.64076,-1.93908 4.6192,-4.0708 4.65246,-10.13632 0.0643,-11.73203 -6.36739,-16.45499 -13.15925,-9.66314 -7.65382,7.65383 -0.39782,24.54208 8.50679,19.79946 z M 835,285 c 0,-16 0,-16 2.5,-16 1.65961,0 2.5,0.55633 2.5,1.65499 0,1.53998 0.12708,1.53998 1.82874,0 C 844.79344,267.97198 849,268.46765 849,271.5 c 0,2 -0.5,2.5 -2.5,2.5 -5.31078,0 -6.5,2.83584 -6.5,15.5 0,11.5 0,11.5 -2.5,11.5 -2.5,0 -2.5,0 -2.5,-16 z m -644.55543,-1.68743 c -15.91676,-13.03542 -38.3308,-37.45322 -53.3426,-58.11132 l -8.16549,-11.23672 2.62678,-4.48227 c 3.32244,-5.66931 3.09415,-5.73005 8.43674,2.24498 13.23977,19.76337 43.11085,52.86755 58.89794,65.27276 8.26806,6.49689 8.03306,5.81137 3.17093,9.25 -4.81027,3.40196 -3.47017,3.7406 -11.6243,-2.93743 z M 193.5,267.5629 l -6,-5.68734 11.69658,0.52268 c 31.52027,1.40855 77.21575,-4.72162 100.13727,-13.43367 2.84138,-1.07996 5.30161,-1.96379 5.46718,-1.96407 0.55787,-9.3e-4 3.19897,6.92174 3.19897,8.38492 0,5.8229 -53.29842,16.04046 -90,17.25341 l -18.5,0.61141 z m -33.74213,1.81073 c -11.73175,-1.6976 -38.42572,-8.35211 -44.96547,-11.2094 -4.70761,-2.05681 -4.70761,-2.05681 -3.13463,-6.67324 0.88197,-2.58844 2.07339,-4.4244 2.7121,-4.1793 6.9818,2.67917 22.87821,7.11986 33.24218,9.28627 12.88795,2.694 12.88795,2.694 18.2409,8.54802 2.94412,3.21971 4.96912,5.80527 4.5,5.74568 -0.46912,-0.0596 -5.23691,-0.74269 -10.59508,-1.51803 z m 87.3197,-19.00393 c 64.46414,-67.32712 89.86167,-153.60534 49.0576,-166.654079 -16.66793,-5.330237 -45.13603,2.881974 -70.81535,20.428149 -5.09614,3.48209 -4.99717,3.48469 -9.31982,-0.2447 -4.17908,-3.60554 -4.26564,-3.50048 10.40245,-12.627176 44.78573,-27.866324 84.77769,-25.621355 96.57292,5.421168 12.13956,31.948718 -7.9332,87.302638 -51.03489,140.737048 -14.60013,18.10021 -15.15709,18.54594 -24.03464,19.2347 L 240.5,257.23939 Z M 83.958194,243.82597 c -36.87246,-22.55555 -40.826788,-54.39367 -9.706311,-78.14999 6.613734,-5.0487 19.72888,-13.11526 20.244435,-12.45148 4.32413,5.56739 3.078828,9.53678 -4.34581,13.85226 -28.165707,16.37097 -34.289998,37.96694 -15.947478,56.23529 4.51536,4.4971 18.930213,14.89903 22.120607,15.9625 C 97.655794,239.7186 94.951421,249 93.489879,249 c -0.59042,0 -4.879678,-2.32831 -9.531685,-5.17403 z m 238.797316,0.67371 c -1.51464,-4.60081 -1.51254,-4.61251 1.11349,-6.193 42.3535,-25.49076 41.97888,-47.59104 -1.26806,-74.80668 -2.03946,-1.28345 0.30287,-10.19975 2.54764,-9.69783 4.21772,0.94308 18.2615,10.73853 25.37346,17.69783 23.80528,23.29431 17.72739,52.09297 -15.13392,71.70858 -11.23435,6.70602 -10.86246,6.66801 -12.63261,1.2911 z M 178.33245,234.14893 C 148.28292,223.76457 158.7604,181.47752 194.5,168.89679 c 38.49505,-13.55067 83.06657,35.18911 54.87373,60.00544 -7.62851,6.71488 -15.60907,8.12339 -31.08255,5.48584 -8.69766,-1.48257 -10.1636,-1.48257 -18.2672,0 -11.13147,2.03653 -15.23735,1.99127 -21.69153,-0.23914 z m 17.74447,-22.07201 c 7.35057,-7.35057 0.33835,-20.15485 -9.66304,-17.64466 C 174.93801,197.31252 177.16198,215 189,215 c 3.25776,0 4.78443,-0.63058 7.07692,-2.92308 z m 39.35714,1.37433 C 243.8031,207.96764 239.58608,194.5 229.5,194.5 c -9.95285,0 -14.25873,13.35302 -6.13968,19.03983 2.7299,1.91209 9.09156,1.86542 12.07374,-0.0886 z M 477,230.29028 c -4.52146,-1.66166 -5,-3.13354 -5,-15.37885 0,-11.77859 0,-11.77859 -2.75,-12.09501 -1.97786,-0.22758 -2.75,-0.87798 -2.75,-2.31642 0,-1.43844 0.77214,-2.08884 2.75,-2.31642 2.48933,-0.28643 2.75,-0.69588 2.75,-4.31955 0,-5.77737 4.32901,-5.43002 4.81037,0.38597 0.19667,2.37632 0.83772,3.79579 1.75,3.875 0.79179,0.0687 2.00213,0.18125 2.68963,0.25 2.63879,0.26388 1.3382,4.11485 -1.5,4.44142 -4.52956,0.52119 -4.29522,21.92454 0.25,22.83358 2.78086,0.55617 4.59648,4.35 2.08179,4.35 -0.50502,0 -1.51752,0.18935 -2.25,0.42077 -0.73249,0.23143 -2.00679,0.17271 -2.83179,-0.13049 z m 20,-0.4867 c -7.19095,-1.98589 -10.76229,-8.67287 -9.65258,-18.07353 2.18406,-18.50176 24.64426,-18.48358 24.65103,0.0199 L 512,216 h -10 c -5.5,0 -10,0.23945 -10,0.53212 0,7.42381 8.85426,11.84403 14.98315,7.47988 2.34453,-1.66945 2.97567,-1.76655 3.93888,-0.60594 3.00149,3.61657 -7.13135,8.27286 -13.92203,6.39752 z m 10,-20.84903 c 0,-6.01943 -8.21578,-8.56875 -12.25,-3.80112 C 491.01382,209.56882 492.29897,211 500,211 c 6.38519,0 7,-0.17965 7,-2.04545 z m 35.64255,20.94333 C 529.67761,226.34802 535.22084,211 549.46788,211 553.63547,211 554,210.79892 554,208.5 c 0,-5.93581 -7.26009,-8.48044 -11.41242,-4 -4.80524,5.18494 -8.503,2.67528 -3.80514,-2.58254 4.7992,-5.37123 16.03617,-4.86195 19.10153,0.86573 2.35051,4.39198 1.79249,27.21971 -0.66535,27.2182 -1.25477,-7.6e-4 -2.54482,-0.68788 -2.86679,-1.52691 -0.42911,-1.11825 -0.92881,-1.24052 -1.8717,-0.45799 -2.18247,1.81129 -6.84026,2.70207 -9.83758,1.88139 z m 8.72259,-5.97046 C 556.30066,220.04514 555.14983,215 549.32874,215 543.80989,215 541,217.05976 541,221.1053 c 0,4.89618 5.74118,6.45933 10.36514,2.82212 z m 39.95118,5.16892 c -6.53804,-3.03043 -9.5311,-11.38636 -7.28033,-20.32498 3.19208,-12.67693 19.66357,-14.72129 24.60203,-3.05348 6.09667,14.40427 -4.8393,29.16415 -17.3217,23.37846 z m 10.65824,-5.0709 c 3.83377,-3.83377 4.08624,-15.44239 0.41421,-19.04584 -6.87405,-6.74568 -15.87744,1.56816 -13.78382,12.72816 1.36912,7.29803 8.85288,10.83441 13.36961,6.31768 z m 84.1191,5.66812 c -9.59979,-3.36371 -11.44307,-22.01454 -2.88723,-29.21381 6.7303,-5.66317 18.79357,-1.12679 18.79357,7.0673 0,2.68346 -4.71047,1.74265 -5.41952,-1.08242 -0.70146,-2.79482 -4.7472,-4.86388 -7.68648,-3.93099 -5.87221,1.86377 -8.3059,15.1304 -3.82142,20.8315 C 688.46651,227.67982 697,226.1102 697,221.17126 697,220.52707 698.125,220 699.5,220 c 5.29888,0 0.92338,8.2328 -5.2931,9.95932 -4.37509,1.2151 -3.8366,1.23274 -8.11324,-0.26576 z m 80.11288,0.21485 C 759.71857,228.58147 756,222.78272 756,213.99228 c 0,-19.6828 23.62752,-21.99593 26.53643,-2.59791 1.78968,11.93441 -5.89595,20.648 -16.32989,18.51404 z m 7.73288,-5.65841 c 5.73541,-4.64464 4.07528,-20.02556 -2.33511,-21.63446 -6.50837,-1.6335 -11.11898,4.16468 -10.38167,13.05572 0.73408,8.85195 7.08713,13.13772 12.71678,8.57874 z m 41.67988,5.71558 C 800.91958,225.56429 803.7514,198 818.90329,198 825.94964,198 831,203.82834 831,211.96016 V 216 h -10 c -10.69583,0 -10.99433,0.17651 -8.48965,5.02002 2.73679,5.29236 8.25356,6.52673 12.88564,2.88314 2.17687,-1.71234 2.94122,-1.86819 4.16817,-0.84991 2.06474,1.71358 -1.53726,5.56689 -6.4899,6.94269 -4.03717,1.1215 -3.60196,1.12327 -7.45496,-0.0304 z m 10.05736,-19.56535 c 1.68802,-4.39891 -4.62375,-9.65663 -9.12856,-7.6041 -2.54053,1.15754 -6.01399,6.64102 -5.12147,8.08515 0.99526,1.61037 13.6109,1.18449 14.25003,-0.48105 z m 48.78862,19.6491 c -3.81314,-1.54722 -4.38954,-3.40259 -4.68076,-15.06687 -0.28045,-11.2328 -0.32028,-11.40422 -2.78452,-11.98422 -1.61345,-0.37975 -2.5,-1.28166 -2.5,-2.54332 0,-1.41485 0.69066,-1.95879 2.5,-1.96891 2.22807,-0.0125 2.53377,-0.48146 2.81051,-4.31163 0.43054,-5.95896 4.50551,-5.89733 4.99986,0.0756 0.26681,3.22378 0.6527,3.75 2.75,3.75 1.93561,0 2.43963,0.5165 2.43963,2.5 0,2 -0.5,2.5 -2.5,2.5 -4.33569,0 -3.85492,21.77902 0.5,22.65 2.78086,0.55617 4.59648,4.35 2.08179,4.35 -0.50502,0 -1.51752,0.19686 -2.25,0.43747 -0.73249,0.24061 -2.24741,0.066 -3.36651,-0.38814 z m 31.86738,0.25577 C 893.07737,227.72089 898.77327,211 912.90886,211 c 4.74933,0 5.40779,-0.7932 4.00322,-4.82236 C 915.21828,201.31879 905,201.18618 905,206.02305 905,206.56037 903.875,207 902.5,207 c -4.44451,0 -2.29314,-5.35283 3.04837,-7.58466 12.39676,-5.17969 17.21368,0.22141 17.69035,19.83578 0.26128,10.75113 0.26128,10.75113 -2.48872,10.75 -1.77886,-7.2e-4 -2.75,-0.53152 -2.75,-1.50306 0,-1.24668 -0.63481,-1.16171 -3.73519,0.5 -2.05436,1.10107 -4.19186,1.94066 -4.75,1.86576 -0.55815,-0.0749 -1.99011,-0.32633 -3.18215,-0.55872 z M 916.25,222.8862 C 920.01492,218.35158 918.6337,215 913,215 c -7.84508,0 -11.35977,4.64023 -6.89583,9.10417 2.57726,2.57726 7.48384,1.98824 10.14583,-1.21797 z m 34.05854,7.04126 c -3.57563,-1.06918 -7.79446,-6.21879 -6.93329,-8.46295 0.7268,-1.89401 4.62475,-1.91189 4.62475,-0.0212 0,4.14991 9.31367,6.07756 12.47681,2.58232 2.80638,-3.10101 0.048,-6.46034 -6.61764,-8.05941 -8.30648,-1.99269 -11.89761,-7.28883 -8.82953,-13.0216 C 949.32027,194.9275 966,197.70315 966,206.43427 c 0,2.44942 -3.59134,1.83838 -5.39764,-0.91838 -2.1651,-3.30437 -5.94457,-4.1769 -9.10965,-2.10306 -5.05,3.30888 -3.0835,6.45993 5.58128,8.94323 7.8523,2.25044 11.06412,6.52029 8.99611,11.95957 -1.84954,4.86466 -9.34061,7.53183 -15.76156,5.61184 z M 425,209 c 0,-21 0,-21 2.5,-21 2.5,0 2.5,0 2.5,21 0,21 0,21 -2.5,21 -2.5,0 -2.5,0 -2.5,-21 z m 14,5 c 0,-16 0,-16 2.5,-16 1.86252,0 2.5,0.52849 2.5,2.07258 0,2.07258 0,2.07258 2.63486,0 4.37522,-3.44155 12.09763,-2.30548 14.47561,2.12955 0.75616,1.41028 1.30712,7.22276 1.42637,15.04787 0.1943,12.75 0.1943,12.75 -2.64139,12.75 -2.8357,0 -2.8357,0 -3.11557,-12.72219 -0.31412,-14.27873 -1.44494,-16.33634 -7.76689,-14.13249 C 445.01374,204.53946 444,207.85628 444,219.54705 444,230 444,230 441.5,230 439,230 439,230 439,214 Z m 79,0.46862 c 0,-16.36767 1.07048,-19.82787 4.6287,-14.96172 1.27694,1.74631 1.42978,1.75015 3.27293,0.0821 2.62853,-2.37878 6.50765,-1.72778 6.91792,1.16098 0.2704,1.90391 -0.14143,2.25 -2.67742,2.25 C 524.57577,203 523,206.55983 523,219.13486 523,230 523,230 520.5,230 518,230 518,230 518,214.46862 Z m 52.64346,14.03198 c -1.89136,-1.89136 -2.94341,-10.0889 -2.4044,-18.73501 0.40796,-6.54409 0.3684,-6.67156 -2.16175,-6.96583 -3.59766,-0.41843 -3.66723,-4.29577 -0.0773,-4.3089 2.24752,-0.008 2.5,-0.4122 2.5,-4 0,-6.33723 4.85542,-6.00478 5.31261,0.36375 0.28822,4.01494 0.50273,4.31826 2.75,3.88867 2.02659,-0.38741 2.43739,-0.068 2.43739,1.89539 0,1.86023 -0.53748,2.36133 -2.53275,2.36133 -4.16924,0 -3.40302,22.3348 0.78275,22.81642 1.94275,0.22354 2.75,0.88402 2.75,2.25 0,2.43859 -7.02609,2.76463 -9.35654,0.43418 z m 46.07318,-3.7506 c -1.30492,-13.3334 -0.29976,-26.22703 2.07131,-26.56955 1.47889,-0.21364 2.21205,0.20066 2.21205,1.25 0,1.93447 0.92009,1.94457 3.44113,0.0377 2.72012,-2.0574 8.86973,-1.84682 11.64281,0.39868 2.24942,1.82148 2.37982,1.82157 5.36078,0.004 3.70731,-2.26076 9.33049,-2.4168 12.29391,-0.34114 C 658.73504,203.0291 660.29411,230 655.5,230 c -1.375,0 -2.5268,-0.3375 -2.55956,-0.75 -0.0327,-0.4125 -0.17972,-5.8309 -0.32659,-12.04088 -0.27917,-11.80345 -0.81507,-13.30816 -5.20672,-14.61931 C 641.92945,200.95441 640,204.98745 640,218.07258 640,230 640,230 637.5,230 c -1.375,0 -2.50417,-0.5625 -2.50926,-1.25 -0.1702,-22.97539 -1.61887,-27.77355 -7.92751,-26.2568 C 622.61909,203.56168 622,205.48109 622,218.19113 622,229.96844 621.99363,230 619.61522,230 c -2.14496,0 -2.43644,-0.52795 -2.89858,-5.25 z M 666,213.93045 c 0,-16.06955 0,-16.06955 2.25,-15.75 C 672.02006,198.71588 672.29082,230 668.52539,230 666,230 666,230 666,213.93045 Z M 723,209 v -21 h 10.6 c 10.6,0 10.6,0 13.94106,3.34106 10.62772,10.62772 2.80411,22.60717 -14.79106,22.64793 L 728,214 v 8 c 0,7.86667 -0.0417,8 -2.5,8 -2.5,0 -2.5,0 -2.5,-21 z m 20.36514,-2.07258 c 7.25478,-5.70661 1.68966,-15.21613 -8.61735,-14.72508 L 728.5,192.5 l -0.29044,8.25 -0.29044,8.25 h 6.40558 c 4.96616,0 6.99767,-0.46574 9.04044,-2.07258 z m 49.28985,21.24384 C 791.31513,226.69074 791,224.13278 791,214.73768 c 0,-11.60484 0,-11.60484 -2.75,-11.92126 -3.73505,-0.42976 -3.95842,-4.26948 -0.25,-4.29752 2.22858,-0.0169 2.53371,-0.48701 2.81051,-4.33052 0.43003,-5.97133 4.5047,-5.92111 4.99986,0.0616 0.26681,3.22378 0.6527,3.75 2.75,3.75 1.93561,0 2.43963,0.5165 2.43963,2.5 0,2.00862 -0.49782,2.5 -2.53275,2.5 -3.54134,0 -3.50955,22.18483 0.0327,22.85371 2.19865,0.41517 3.64605,2.10096 2.875,3.34854 -0.94805,1.53397 -7.05186,0.8123 -8.72001,-1.03099 z M 837,214.66667 c 0,-8.43334 0.25106,-15.58439 0.5579,-15.89124 1.01357,-1.01357 4.4421,0.43063 4.4421,1.87114 0,1.04583 0.76325,0.84901 2.93544,-0.75696 3.73761,-2.76334 10.61358,-2.16476 13.30434,1.15818 C 861.45931,205.02373 860.82112,230 857.5,230 855,230 855,230 855,217.52305 855,203.0308 853.49167,200.31106 846.95588,203.01827 842.56009,204.83907 842,206.63781 842,218.93426 842,230 842,230 839.5,230 837,230 837,230 837,214.66667 Z m 50,-0.53013 c 0,-15.81796 0.006,-15.86314 2.25,-15.75 C 893.02299,198.5768 893.29673,230 889.52539,230 887,230 887,230 887,214.13654 Z M 931,207.5 c 0,-22.5 0,-22.5 2.5,-22.5 2.5,0 2.5,0 2.5,22.5 0,22.5 0,22.5 -2.5,22.5 -2.5,0 -2.5,0 -2.5,-22.5 z M 114.47301,189.75 C 84.463519,134.63944 84.795781,89.428226 115.31296,75.456999 154.44878,57.540028 227.637,102.7894 283.79429,179.62231 c 6.02159,8.23858 5.88072,7.61377 2.95995,13.12818 -2.83648,5.35526 -2.35938,5.63409 -10.9809,-6.41773 C 204.50461,86.707859 102.20721,46.568949 102.76669,118.44933 c 0.13544,17.40141 5.51593,36.43774 16.23965,57.45638 l 5.8192,11.40571 -2.66277,4.82988 c -3.35681,6.08877 -3.01405,6.19536 -7.68976,-2.3913 z m 551.18565,1.80287 c -0.96061,-2.50332 0.40188,-4.6863 2.71862,-4.35574 1.5168,0.21642 2.12272,1.01648 2.12272,2.80287 0,2.91369 -3.84579,4.14723 -4.84134,1.55287 z m 220.93187,-0.17754 c -0.8482,-2.21039 1.71996,-4.8539 3.90207,-4.01655 1.0151,0.38954 1.52477,1.49782 1.32754,2.88675 -0.39875,2.80809 -4.26506,3.64336 -5.22961,1.1298 z M 294.5,152.41634 c -5.5,-1.79082 -15.72927,-4.50711 -22.7317,-6.03621 -12.7317,-2.78018 -12.7317,-2.78018 -17.94141,-8.05541 -6.48212,-6.56366 -6.29494,-6.72533 5.57498,-4.81527 24.42963,3.93111 49.01649,11.55492 47.99678,14.88267 -2.37534,7.75176 -1.90309,7.60442 -12.89865,4.02422 z m -182.59688,-1.34536 c -1.49335,-4.98436 -1.28015,-5.2219 7.09688,-7.90662 24.68299,-7.91057 50.12855,-11.96755 80.55077,-12.84281 l 21.05076,-0.60564 5.78734,5.39204 5.78734,5.39205 -25.3381,0.1053 c -32.18552,0.13375 -54.897,3.23973 -79.83811,10.91851 -14.03369,4.32064 -13.66339,4.33175 -15.09688,-0.45283 z M 679.99353,134.13011 C 654.74936,125.80208 652.35615,82.820732 676.5,71.387309 c 24.44381,-11.575472 47.15649,16.049889 37.18004,45.221981 -4.56273,13.34188 -20.78231,21.77791 -33.68651,17.52082 z m 16.66027,-14.4494 c 8.19418,-8.94141 6.36885,-33.514919 -2.84338,-38.278746 C 682.54249,75.57509 674.5,84.15385 674.5,102 c 0,19.60072 11.77908,29.00148 22.1538,17.68071 z M 768.5,133.50952 c -17.25328,-6.05024 -18.61238,-37.173296 -2,-45.799359 12.7688,-6.630264 28.1796,-0.141744 30.97074,13.039839 0.68817,3.25 0.68817,3.25 -5.89128,3.25 C 786.68659,104 785,103.65006 785,102.63486 c 0,-6.476086 -10.28605,-8.841998 -14.40003,-3.312179 -3.05114,4.101199 -3.04624,17.254469 0.008,21.350409 3.30168,4.42785 11.25906,4.18931 13.39208,-0.40145 2.36091,-5.08123 14.55003,-5.10083 13.46399,-0.0216 -2.53213,11.84228 -15.74996,17.89332 -28.96399,13.25952 z M 543.66667,133.33333 C 543.3,132.96667 543,118.56667 543,101.33333 V 70 h 7 7 v 32 32 h -6.33333 c -3.48334,0 -6.63334,-0.3 -7,-0.66667 z M 568.77009,127.75 c -0.51452,-13.98712 -0.52462,-23.09858 -0.0443,-40 L 569.2302,70 h 15.5189 c 25.7614,0 33.5882,5.080845 33.38999,21.67545 -0.15436,12.92279 -7.50243,18.58042 -24.88906,19.16327 L 582,111.21585 V 122.60793 134 h -6.5 -6.5 z m 31.63308,-28.887836 c 5.12807,-2.336505 5.64922,-12.102594 0.84739,-15.879715 C 599.19392,81.364699 597.1914,81 590.36514,81 H 582 v 9.5 9.5 h 7.95295 c 4.37412,0 9.07672,-0.512026 10.45022,-1.137836 z M 724,110 V 86 h 6.5 c 5.86529,0 6.5,0.19822 6.5,2.029937 0,2.0037 0.0383,2.00162 2.96338,-0.160985 6.57736,-4.862848 11.49464,-3.250234 11.83434,3.881048 0.29771,6.25 0.29771,6.25 -4.63922,6.25 -9.98818,0 -9.60603,-1.309657 -10.13999,34.75 -0.0129,0.8699 -1.99505,1.25 -6.51851,1.25 H 724 Z m 81,-10 V 66 h 6.5 6.5 v 11.966275 11.966274 l 3.72806,-2.199608 c 4.81555,-2.841243 13.40752,-2.988078 17.90723,-0.30603 5.90917,3.522145 6.78123,6.905664 7.17108,27.823089 L 847.15583,134 H 840.07791 833 V 116.52305 C 833,96.501527 832.36085,95.030646 824.23391,96.349467 818.32605,97.308182 818,98.39824 818,117.19113 V 134 h -6.5 -6.5 z m -622.45349,24.94861 c 1.02106,-1.12826 4.92252,-4.55981 8.6699,-7.62566 l 6.81342,-5.57428 3.98509,2.76167 c 4.91033,3.40286 4.95852,3.09059 -1.27165,8.23966 -6.08294,5.02738 -22.55824,7.01799 -18.19676,2.19861 z M 626,106.5 V 101 h 13 13 v 5.5 5.5 h -13 -13 z"
         id="path8"
         clip-path="url(#clipPath3-7)"
         transform="translate(-1.2240262,42.840918)" />
    </clipPath>
    <radialGradient
       inkscape:collect="always"
       xlink:href="#linearGradient7"
       id="radialGradient9"
       gradientUnits="userSpaceOnUse"
       gradientTransform="matrix(1,0,0,0.83413972,0,34.686816)"
       cx="223.94812"
       cy="209.13275"
       fx="223.94812"
       fy="209.13275"
       r="171.59326" />
    <clipPath
       clipPathUnits="userSpaceOnUse"
       id="clipPath3-7">
      <rect
         style="fill:#000000;fill-rule:evenodd;stroke:#000000;stroke-width:0.377953;stroke-dasharray:2.26773, 0.377953"
         id="rect4-7"
         width="363.51724"
         height="326.29999"
         x="32.024139"
         y="25.965517" />
    </clipPath>
    <radialGradient
       inkscape:collect="always"
       xlink:href="#linearGradient11"
       id="radialGradient12"
       cx="208.55734"
       cy="242.96921"
       fx="208.55734"
       fy="242.96921"
       r="157.4265"
       gradientTransform="matrix(1,0,0,0.82806132,0,41.775805)"
       gradientUnits="userSpaceOnUse" />
  </defs>
  <sodipodi:namedview
     id="namedview1"
     pagecolor="#505050"
     bordercolor="#ffffff"
     borderopacity="1"
     inkscape:showpageshadow="0"
     inkscape:pageopacity="0"
     inkscape:pagecheckerboard="1"
     inkscape:deskcolor="#d1d1d1"
     inkscape:zoom="0.81697596"
     inkscape:cx="53.857154"
     inkscape:cy="-8.5681835"
     inkscape:window-width="2560"
     inkscape:window-height="1057"
     inkscape:window-x="1920"
     inkscape:window-y="0"
     inkscape:window-maximized="1"
     inkscape:current-layer="g12" />
  <g
     inkscape:groupmode="layer"
     inkscape:label="Image"
     id="g1"
     transform="translate(-51.269964,-111.32588)">
    <g
       id="g12"
       transform="matrix(0.96032817,0,0,0.96032817,2.0339734,2.1883441)"
       style="stroke-width:1.04131">
      <rect
         style="fill:url(#radialGradient12);fill-rule:evenodd;stroke:none;stroke-width:1.38841;stroke-dasharray:8.33053, 1.38841;stroke-dashoffset:0;stroke-opacity:1"
         id="rect8-8"
         width="315.79877"
         height="260.71759"
         x="50.185074"
         y="112.61041"
         clip-path="url(#clipPath8)"
         transform="translate(0.13912327,1.0356758)" />
      <g
         id="g13"
         transform="translate(0,-10.453791)">
        <text
           xml:space="preserve"
           style="font-style:normal;font-variant:normal;font-weight:bold;font-stretch:normal;font-size:83.3049px;line-height:0.8;font-family:Roboto;-inkscape-font-specification:'Roboto Bold';text-align:start;text-decoration-color:#000000;writing-mode:lr-tb;direction:ltr;text-anchor:start;fill:#0058b6;fill-opacity:1;fill-rule:evenodd;stroke:#000000;stroke-width:0.393568;stroke-dasharray:2.3614, 0.393568"
           x="434.45221"
           y="224.94885"
           id="text5"
           transform="scale(0.99619572,1.0038188)"><tspan
             sodipodi:role="line"
             id="tspan5"
             x="434.45221"
             y="224.94885"
             style="font-style:normal;font-variant:normal;font-weight:bold;font-stretch:normal;font-size:83.3049px;font-family:Roboto;-inkscape-font-specification:'Roboto Bold';stroke:none;stroke-width:0.393568">IP-Orch</tspan></text>
        <text
           xml:space="preserve"
           style="font-style:normal;font-variant:normal;font-weight:bold;font-stretch:normal;font-size:55.5366px;line-height:1;font-family:Roboto;-inkscape-font-specification:'Roboto Bold';text-align:start;text-decoration-color:#000000;writing-mode:lr-tb;direction:ltr;text-anchor:start;fill:#0058b6;fill-opacity:1;fill-rule:evenodd;stroke:#000000;stroke-width:1.38841;stroke-dasharray:8.33053, 1.38841;stroke-dashoffset:0;stroke-opacity:1"
           x="435.61017"
           y="300.8551"
           id="text6"><tspan
             sodipodi:role="line"
             id="tspan6"
             x="435.61017"
             y="300.8551"
             style="font-style:normal;font-variant:normal;font-weight:normal;font-stretch:normal;font-size:55.5366px;line-height:1;font-family:Roboto;-inkscape-font-specification:Roboto;text-align:start;text-anchor:start;fill:#494949;fill-opacity:1;stroke:none;stroke-width:1.38841">Interatomic Potentials</tspan><tspan
             sodipodi:role="line"
             x="435.61017"
             y="356.39169"
             id="tspan7"
             style="font-style:normal;font-variant:normal;font-weight:normal;font-stretch:normal;font-size:55.5366px;line-height:1;font-family:Roboto;-inkscape-font-specification:Roboto;text-align:start;text-anchor:start;fill:#494949;fill-opacity:1;stroke:none;stroke-width:1.38841">Orchestrator</tspan></text>
      </g>
    </g>
  </g>
</svg>
